<?xml version="1.0" encoding="utf-8"?>
<!-- Generator: Adobe Illustrator 23.1.0, SVG Export Plug-In . SVG Version: 6.00 Build 0)  -->
<svg version="1.1" id="圖層_1" xmlns="http://www.w3.org/2000/svg" xmlns:xlink="http://www.w3.org/1999/xlink" x="0px" y="0px"
	 viewBox="0 0 800 600" style="enable-background:new 0 0 800 600;" xml:space="preserve">
<style type="text/css">
	.st0{clip-path:url(#SVGID_2_);}
	.st1{clip-path:url(#SVGID_4_);fill:#00CC99;}
	.st2{clip-path:url(#SVGID_6_);}
	.st3{clip-path:url(#SVGID_8_);fill:#00CC99;}
	.st4{clip-path:url(#SVGID_10_);}
	.st5{clip-path:url(#SVGID_12_);fill:#00CC99;}
	.st6{clip-path:url(#SVGID_14_);}
	.st7{clip-path:url(#SVGID_16_);fill:#00CC99;}
	.st8{clip-path:url(#SVGID_18_);}
	.st9{clip-path:url(#SVGID_20_);fill:#00CC99;}
	.st10{clip-path:url(#SVGID_22_);}
	.st11{clip-path:url(#SVGID_24_);fill:#00CC99;}
	.st12{clip-path:url(#SVGID_26_);}
	.st13{clip-path:url(#SVGID_28_);fill:#00CC99;}
	.st14{clip-path:url(#SVGID_30_);}
	.st15{clip-path:url(#SVGID_32_);fill:#00CC99;}
	.st16{clip-path:url(#SVGID_34_);}
	.st17{clip-path:url(#SVGID_36_);fill:#00CC99;}
	.st18{clip-path:url(#SVGID_38_);}
	.st19{clip-path:url(#SVGID_40_);fill:#00CC99;}
	.st20{clip-path:url(#SVGID_42_);}
	.st21{clip-path:url(#SVGID_44_);fill:#00CC99;}
	.st22{clip-path:url(#SVGID_46_);}
	.st23{clip-path:url(#SVGID_48_);fill:#00CC99;}
	.st24{clip-path:url(#SVGID_50_);}
	.st25{clip-path:url(#SVGID_52_);fill:#00CC99;}
	.st26{clip-path:url(#SVGID_54_);}
	.st27{clip-path:url(#SVGID_56_);fill:#00CC99;}
	.st28{clip-path:url(#SVGID_58_);}
	.st29{clip-path:url(#SVGID_60_);fill:#00CC99;}
	.st30{clip-path:url(#SVGID_62_);}
	.st31{clip-path:url(#SVGID_64_);fill:#00CC99;}
	.st32{clip-path:url(#SVGID_66_);}
	.st33{clip-path:url(#SVGID_68_);fill:#00CC99;}
	.st34{clip-path:url(#SVGID_70_);}
	.st35{clip-path:url(#SVGID_72_);fill:#00CC99;}
	.st36{clip-path:url(#SVGID_74_);}
	.st37{clip-path:url(#SVGID_76_);fill:#00CC99;}
	.st38{clip-path:url(#SVGID_78_);}
	.st39{clip-path:url(#SVGID_80_);fill:#00CC99;}
	.st40{clip-path:url(#SVGID_82_);}
	.st41{clip-path:url(#SVGID_84_);fill:#00CC99;}
	.st42{clip-path:url(#SVGID_86_);}
	.st43{clip-path:url(#SVGID_88_);fill:#00CC99;}
	.st44{clip-path:url(#SVGID_90_);}
	.st45{clip-path:url(#SVGID_92_);fill:#00CC99;}
	.st46{clip-path:url(#SVGID_94_);}
	.st47{clip-path:url(#SVGID_96_);fill:#00CC99;}
</style>
<g>
	<defs>
		<path id="SVGID_65_" d="M643.49,275.57l-100.23-173.4c-7.9-13.67-27.3-24.86-43.11-24.86H299.68c-15.81,0-35.21,11.19-43.11,24.86
			l-100.23,173.4c-7.9,13.67-7.9,36.05,0,49.72l100.23,173.4c7.9,13.67,27.3,24.86,43.11,24.86h200.47
			c15.81,0,35.21-11.19,43.11-24.86l100.23-173.4C651.4,311.61,651.4,289.24,643.49,275.57 M603.23,308.96l-94.26,163.07
			c-2.12,3.67-10.55,8.53-14.79,8.53H305.65c-4.24,0-12.68-4.86-14.8-8.53L196.6,308.96c-2.12-3.67-2.12-13.39,0-17.06l94.26-163.07
			c2.12-3.67,10.55-8.53,14.8-8.53h188.52c4.24,0,12.67,4.86,14.79,8.53l94.26,163.07C605.35,295.56,605.35,305.29,603.23,308.96"/>
	</defs>
	<clipPath id="SVGID_2_">
		<use xlink:href="#SVGID_65_"  style="overflow:visible;"/>
	</clipPath>
	<g class="st0">
		<defs>
			<rect id="SVGID_67_" width="800" height="600"/>
		</defs>
		<clipPath id="SVGID_4_">
			<use xlink:href="#SVGID_67_"  style="overflow:visible;"/>
		</clipPath>
		<rect x="145.41" y="72.31" class="st1" width="509.01" height="456.24"/>
	</g>
</g>
<g>
	<defs>
		<rect id="SVGID_69_" x="250.96" y="303.34" width="148.96" height="31.58"/>
	</defs>
	<clipPath id="SVGID_6_">
		<use xlink:href="#SVGID_69_"  style="overflow:visible;"/>
	</clipPath>
	<g class="st2">
		<defs>
			<rect id="SVGID_71_" width="800" height="600"/>
		</defs>
		<clipPath id="SVGID_8_">
			<use xlink:href="#SVGID_71_"  style="overflow:visible;"/>
		</clipPath>
		<rect x="245.96" y="298.34" class="st3" width="158.96" height="41.58"/>
	</g>
</g>
<g>
	<defs>
		<rect id="SVGID_73_" x="280.17" y="359.96" width="119.75" height="31.58"/>
	</defs>
	<clipPath id="SVGID_10_">
		<use xlink:href="#SVGID_73_"  style="overflow:visible;"/>
	</clipPath>
	<g class="st4">
		<defs>
			<rect id="SVGID_75_" width="800" height="600"/>
		</defs>
		<clipPath id="SVGID_12_">
			<use xlink:href="#SVGID_75_"  style="overflow:visible;"/>
		</clipPath>
		<rect x="275.17" y="354.96" class="st5" width="129.75" height="41.58"/>
	</g>
</g>
<g>
	<defs>
		<rect id="SVGID_77_" x="309.37" y="416.6" width="90.54" height="31.58"/>
	</defs>
	<clipPath id="SVGID_14_">
		<use xlink:href="#SVGID_77_"  style="overflow:visible;"/>
	</clipPath>
	<g class="st6">
		<defs>
			<rect id="SVGID_79_" width="800" height="600"/>
		</defs>
		<clipPath id="SVGID_16_">
			<use xlink:href="#SVGID_79_"  style="overflow:visible;"/>
		</clipPath>
		<rect x="304.37" y="411.6" class="st7" width="100.54" height="41.58"/>
	</g>
</g>
</svg>
